#!OML:ASF F:\VICON\USERDATA\INSTALL\rory3\rory3.ASF
:FULLY-SPECIFIED
:DEGREES
31
root -0.3067132412997802 18.432123813364715 11.067588293764112 6.58528974867299 -4.555422846957372 -0.7589925687136554
lfemur 8.56965171044664 0.4051511336455678 -24.76507954115399
ltibia 27.718045662024977
lfoot 18.25309109335862 -11.64343699863373
ltoes -24.344349419418343
rfemur -47.65119008880092 2.490636713574403 26.049434144997278
rtibia 62.80474801793732
rfoot 4.500713680219613 -1.3921643867328033
rtoes -5.725292462847561
lowerback nan -0.663761664930445 -2.495075156605794
upperback -1.6502123810785236 -1.0980581230126014 2.3052853592370766
thorax -9.691142168428273 -0.4645941095716303 4.126151939911865
lowerneck -20.682657032387354 -2.2660780458339316 -2.1963509687836833
upperneck 16.179097091543873 -2.874684611964276 2.445563354604167
head 8.398859233353537 -1.1450664663151544 0.7431874624596089
lclavicle -3.939493031697089e-15 -1.6678463230975148e-16
lhumerus -35.68037683881085 -19.65616150170948 95.69101675022046
lradius 122.51574437154058
lwrist 34.913308228102416
lhand -24.322212222851896 0.5496085627339291
lfingers nan
lthumb 1.8987191819459897 30.31650924589659
rclavicle -4.691906709127658e-15 -7.763005550132839e-16
rhumerus -63.30167856619852 5.228024597765412 -97.33947077056311
rradius 106.7433579157624
rwrist -12.420628446650504
rhand -15.631780970571263 nan
rfingers nan
rthumb 9.097144681966544 10.637719720618177
32
root -0.22361180026369165 18.62511210265597 12.387987270233698 6.8910720261974685 -4.996204649610019 -0.20360568025916637
lfemur 11.391295652556403 -1.0015605452447893 -26.127407770514992
ltibia 24.30018748257928
lfoot 19.72536632058521 -12.486653422394735
ltoes -19.620931352624204
rfemur -45.208926261061166 2.1032186028505637 25.930665455747473
rtibia 53.22928284785793
rfoot 4.59055500734872 -0.2813287330009304
rtoes -9.445640783400197
lowerback nan -0.9270977934403446 -2.8386175304042176
upperback -2.0591940286446313 -1.4794805344336108 2.3732721552978644
thorax -9.814555577476295 -0.5834833645083007 4.770016534501139
lowerneck -20.44413760544133 -2.143173598822263 -2.197855636432144
upperneck 16.50862934406797 -2.632590662027296 2.2401675476431104
head 8.46658658594421 -1.058560611674755 0.6844504842573548
lclavicle -5.5440689755738785e-15 -2.533145095998255e-15
lhumerus -36.38003763169445 -20.70437326244027 96.21437742446265
lradius 122.58911555488336
lwrist 34.5411209579285
lhand -24.26975359333757 0.21577422378252842
lfingers nan
lthumb 1.93861199411857 30.06191483832398
rclavicle -5.618948572570953e-15 -2.9385263142564445e-15
rhumerus -63.985524890884285 4.46789491816899 -96.1826585476345
rradius 106.76108981773608
rwrist -11.415818438928822
rhand -15.425247520472595 nan
rfingers nan
rthumb 9.310623788150508 10.737806074104077
33
root -0.16840872861601353 18.75483717551979 13.468569722838343 7.110243478285499 -3.8403800068681098 0.7386805638688902
lfemur 13.376477910193925 -2.8772242536663772 -27.620183157087883
ltibia 23.15862497014667
lfoot 19.883920242016007 -12.58877398428216
ltoes -18.178655164259812
rfemur -43.57451866833744 0.945998482530164 25.317378238974143
rtibia 44.449291578634075
rfoot 4.34836212470492 0.4671620327144703
rtoes -11.574941148221733
lowerback nan -1.480765447463337 -3.1358741863424537
upperback -2.2947064746118127 -2.206129211163724 2.216999808220475
thorax -9.864236253584407 -0.8859141562643434 5.118410559486905
lowerneck -20.612835740180316 -2.1439092042100145 -2.249013433060459
upperneck 16.614567220554548 -2.5728870187066644 2.157126397729028
head 8.529095531232072 -1.040762520893736 0.6560142401656363
lclavicle -2.4467259412940294e-15 1.6794229478807296e-15
lhumerus -36.995018579669185 -21.60268360498732 96.78780141855317
lradius 122.36607168702496
lwrist 34.458178248608384
lhand -24.379576522078807 0.5444615604830474
lfingers nan
lthumb 1.793383413449006 30.469880214014022
rclavicle -3.739021476049052e-15 1.0900755797167064e-15
rhumerus -64.35766528547441 3.7294447047230435 -95.10523922097596
rradius 106.84301028005524
rwrist -10.03710294625037
rhand -15.376774775822213 nan
rfingers nan
rthumb 9.47991468848274 10.491882207097511
34
root -0.1431294055441657 18.822010650823028 14.640193143701936 6.80648506577168 -3.220433974163447 1.5390754402312683
lfemur 14.33003208092085 -4.9206945222791125 -29.16538813821014
ltibia 24.08712826001065
lfoot 19.725362499697674 -12.461108835495466
ltoes -17.229382499811628
rfemur -41.59275096077653 0.19638172606240034 24.93713021150178
rtibia 37.23720891476147
rfoot 3.8607459076295196 -0.3764000538426284
rtoes -14.154597090025689
lowerback nan -1.7967455215284671 -3.4822218353323473
upperback -2.22958636841567 -2.640147918705149 2.031472931373871
thorax -9.770483787913378 -1.0827653786788556 5.2614148864184624
lowerneck -20.75822428374143 -2.1524131424702575 -2.202663062948207
upperneck 16.547872742566486 -2.5727066820583313 2.091962761950071
head 8.54105203566889 -1.0537649350829161 0.6319545083942495
lclavicle -4.3475271614007e-15 -6.695477669125085e-16
lhumerus -37.4712966709007 -22.580223431105523 97.2984706422158
lradius 121.80115724519655
lwrist 34.42753211714618
lhand -24.38243761849199 0.735872894681334
lfingers nan
lthumb 1.7554991119863934 30.649023507355977
rclavicle -4.88931817577248e-15 -8.19305345967513e-16
rhumerus -64.37281829696083 2.7953009494000804 -94.14832757680863
rradius 106.71784694918026
rwrist -8.800086238114645
rhand -15.740517020029237 nan
rfingers nan
rthumb 9.356903037471799 10.08356344170407
35
root -0.09436281533544338 18.8246112002041 16.928196652808392 6.483782301356189 -3.1053538274384214 1.893165055379003
lfemur 13.633391621731528 -5.634445432989903 -29.468904732023113
ltibia 27.552652694588513
lfoot 19.654455731947504 -12.86509540295555
ltoes -13.250061646009591
rfemur -39.75462294054222 0.545612941940137 24.760992144493454
rtibia 32.57891949030565
rfoot 3.843916701271998 -2.585250175843633
rtoes -16.567263009807505
lowerback nan -1.8667761039510267 -3.601650618083867
upperback -1.9320036266503022 -2.794075983307663 1.8662897588410683
thorax -9.390055521046458 -1.1461666150615542 5.237567076037423
lowerneck -21.097712805769504 -2.2824396286898065 -2.283333358399904
upperneck 16.291825609750255 -2.749773740638699 2.129552797854068
head 8.511184407192081 -1.1463767691130973 0.6288040757180596
lclavicle -5.723898882425391e-15 -3.1348816026308088e-15
lhumerus -37.497087654637255 -23.178743778702497 97.62184533102074
lradius 120.54716310051701
lwrist 34.28066157650541
lhand -24.334046684706102 0.8831054996671359
lfingers nan
lthumb 1.8526166454107613 30.892346675455435
rclavicle -5.272467370561478e-15 -3.138212740145601e-15
rhumerus -63.83053934081044 1.7851526631186996 -93.37605894876717
rradius 106.28323104085297
rwrist -7.926065570191854
rhand -15.806847723317563 nan
rfingers nan
rthumb 9.646396032069024 10.15546792350242
36
root -0.07135685796216759 18.77771086638884 18.40653687438363 5.922602015752876 -3.230381785561829 1.5093743400870943
lfemur 12.24372468132202 -5.654315952070961 -28.900167955127877
ltibia 32.79376841390824
lfoot 20.469001818648053 -13.580889403040366
ltoes -8.231538398624398
rfemur -37.921453392028 1.3970927635685015 25.418982702283135
rtibia 30.780412533793886
rfoot 4.050975799113341 -3.487881443810724
rtoes -17.823790140492694
lowerback nan -1.839714526055349 -3.2153440583294897
upperback -1.5759711158961578 -2.7504002390618165 1.808659165247044
thorax -9.131762390165147 -1.122295031613823 5.093041228038777
lowerneck -21.1683080324564 -2.420559205377057 -2.480316087845587
upperneck 15.782068894456032 -2.930493997614624 2.195352823715358
head 8.399806920731566 -1.255052249572182 0.6403253511542608
lclavicle -1.5336261642372535e-15 3.1078492852601477e-15
lhumerus -37.39337084386254 -23.25760388747591 97.77470001598083
lradius 118.10302212688528
lwrist 33.9794163556348
lhand -24.497778092912455 1.6028700970047622
lfingers nan
lthumb 1.733442069890831 31.509711411095715
rclavicle -2.3788148649283837e-16 3.68112646815281e-15
rhumerus -62.94594271702016 0.9155298276577257 -92.83420266270699
rradius 105.6156558105223
rwrist -7.483549312793178
rhand -15.917521549301318 nan
rfingers nan
rthumb 9.66755873447919 10.006719725264064
37
root -0.06374456501203346 18.65011206233512 19.40271326729949 4.966735659555365 -3.8274053136662567 1.19688144457267
lfemur 10.525516813519102 -4.805137497965393 -28.206622244954673
ltibia 39.209491752901585
lfoot 20.92608177316033 -14.699959364176726
ltoes -4.867212984530036
rfemur -36.60271988237582 1.7262766694115799 26.09139727771938
rtibia 31.82742293243893
rfoot 3.4430056155026194 -2.8771193083923983
rtoes -18.01690101181893
lowerback nan -1.6398910913644844 -2.9309652940485122
upperback -1.2274934278273042 -2.4480559752791704 1.8267560211682123
thorax -9.103194862978281 -0.9516246877511471 4.844331002568163
lowerneck -20.988823721146893 -2.5613249643140383 -2.7125959654203036
upperneck 15.215295175287071 -3.0866542689757406 2.2354956600398355
head 8.213582631418717 -1.3466654268945513 0.6503380756276722
lclavicle -1.633458737653676e-15 2.5200704998995487e-15
lhumerus -37.417219212449595 -22.945464403423696 97.81382326687493
lradius 114.55385186996845
lwrist 33.28413480784139
lhand -24.691497099721165 1.2003416109197866
lfingers nan
lthumb 1.6609078201441494 31.161206241510907
rclavicle -7.137699834071113e-16 3.1021925025994836e-15
rhumerus -61.970544211353385 0.36657023763469887 -92.55520241110742
rradius 104.95018194536084
rwrist -7.183332298625956
rhand -16.038674493506782 nan
rfingers nan
rthumb 9.905008495670208 9.770538626177707
38
root -0.053266941026127806 18.471792432061825 20.14779815441614 3.8914638734618054 -4.148301346739487 1.0396060641919926
lfemur 8.947172811648764 -3.7497540731287646 -27.369394219676977
ltibia 46.35174594983171
lfoot 20.487502967990928 -15.029525106127181
ltoes -3.8132522424298116
rfemur -35.83398042384952 1.3955518250926109 26.62869506550527
rtibia 35.10565735920632
rfoot 1.4187038256682447 -1.383889613981685
rtoes -13.796664493692397
lowerback nan -1.43981987977577 -2.625395763985015
upperback -0.9504943778845243 -2.159247842559015 1.8695197451543664
thorax -9.21263059267912 -0.8272480957839857 4.509199322664806
lowerneck -20.26393201511372 -2.542289308111126 -2.684732288309955
upperneck 14.713007640727932 -3.044968386879975 2.1411665349158504
head 7.985925010463667 -1.3586692039701158 0.6130095991083822
lclavicle -5.4366706989931586e-15 -3.3039061256762557e-15
lhumerus -37.68225316325254 -22.27711212912918 97.8897457611609
lradius 110.02515722125771
lwrist 32.32402625177579
lhand -24.720567526336414 1.4201637304985226
lfingers nan
lthumb 1.6399407402100359 31.18030908206998
rclavicle -4.909447680187095e-15 -2.7555743204969314e-15
rhumerus -60.839127840691134 0.06757028053803715 -92.4259885472163
rradius 104.27194955201603
rwrist -6.442112391461169
rhand -16.22616123390472 nan
rfingers nan
rthumb 9.822480659819304 9.454853214846993
